<?xml version="1.0" encoding="utf-8"?>
<!-- Generator: Adobe Illustrator 22.1.0, SVG Export Plug-In . SVG Version: 6.00 Build 0)  -->
<svg version="1.1" id="Layer_1" xmlns="http://www.w3.org/2000/svg" xmlns:xlink="http://www.w3.org/1999/xlink" x="0px" y="0px"
	 viewBox="0 0 511.8 511.8" style="enable-background:new 0 0 511.8 511.8;" xml:space="preserve">
<style type="text/css">
	.st0{fill:#5D9CEC;}
	.st1{opacity:0.2;fill:#FFFFFF;enable-background:new    ;}
	.st2{fill:#434A54;}
	.st3{fill:#A0D468;}
	.st4{fill:#8CC153;}
</style>
<path class="st0" d="M427.3,0H213.1l-88.6,88.6h0l-60.7,60.7v341.2c0,11.8,9.5,21.3,21.3,21.3h342.1c11.8,0,21.3-9.5,21.3-21.3V85.2
	V21.3C448.6,9.6,439,0,427.3,0z M221.9,21.3h205.3v42.5H179.4L221.9,21.3z"/>
<path class="st1" d="M85.1,490.5V128l-21.3,21.3v341.2c0,11.8,9.5,21.3,21.3,21.3h21.3C94.7,511.8,85.1,502.3,85.1,490.5z"/>
<path class="st2" d="M111.6,56.5c-4.2-4.2-10.9-4.2-15.1,0L66.4,86.6c-4.2,4.2-4.2,10.9,0,15.1c4.2,4.2,10.9,4.2,15.1,0l30.2-30.2
	C115.8,67.4,115.8,60.6,111.6,56.5z"/>
<path class="st3" d="M356,207c0,0-103.5-5.6-152.7,43.3c-30.2,30-30.3,78.8-0.4,109l0,0c30,30.1,78.8,30.2,109,0.2
	C361.1,310.5,356,207,356,207z"/>
<path class="st4" d="M275,298.1c0-5.9-4.8-10.7-10.7-10.7c-3,0-5.6,1.2-7.5,3.1l-98,98c-1.9,1.9-3.1,4.6-3.1,7.5
	c0,5.9,4.8,10.7,10.7,10.7c3,0,5.6-1.2,7.5-3.1l98-98C273.8,303.7,275,301.1,275,298.1z"/>
</svg>
