<svg viewBox="0 0 512 512" xmlns="http://www.w3.org/2000/svg"><path d="m346.199219 282.5-27.898438 60.898438-63.300781 138.601562v30h-60c-49.800781 0-95.699219-21.902344-127.199219-60h-52.800781c-8.402344 0-15-6.601562-15-15v-105l89.699219-53.699219 47.101562-12 142.5-39.300781zm0 0" fill="#ffbd86"/><path d="m318.300781 343.398438-63.300781 138.601562v30h-60c-49.800781 0-95.699219-21.902344-127.199219-60h-52.800781c-8.402344 0-15-6.601562-15-15v-93.601562zm0 0" fill="#f6a96c"/><path d="m407 90c8.402344 0 15 6.597656 15 15v6.300781c0 36.300781 0 73.199219-15 104.097657-7.5 15.902343-19.199219 30.300781-36.597656 42l-15 10.203124c-2.703125 1.496094-5.402344 2.398438-8.402344 2.398438-4.800781 0-9.601562-2.402344-12.597656-6.601562-4.503906-6.898438-2.703125-16.199219 4.199218-21l15.296876-9.898438c38.101562-25.5 38.101562-69.902344 38.101562-121.199219v-6.300781c0-8.402344 6.597656-15 15-15zm0 0" fill="#93bf00"/><path d="m326.25 377 7.5-31.875-42.5-9.375-17.5 41.25h-30c-18.640625 0-33.75 15.109375-33.75 33.75 0 18.636719 15.109375 33.75 33.75 33.75l40.625 20.625 11.875-20.625h30c18.640625 0 33.75-15.113281 33.75-33.75 0-18.640625-15.109375-33.75-33.75-33.75zm0 0" fill="#ffbd86"/><path d="m420 275.75c0-18.640625-15.109375-33.75-33.75-33.75h-82.5c-18.640625 0-33.75 15.109375-33.75 33.75 0 18.636719 15.109375 33.75 33.75 33.75l28.125 18.75 24.375-18.75h30c18.640625 0 33.75-15.113281 33.75-33.75zm0 0" fill="#fed2a4"/><path d="m407 90c8.402344 0 15 6.597656 15 15v6.300781c0 36.300781 0 73.199219-15 104.097657zm0 0" fill="#81a713"/><path d="m512 15v30c0 41.398438-33.601562 75-75 75h-60c-41.398438 0-75-33.601562-75-75v-30c0-8.402344 6.597656-15 15-15h30c24.601562 0 46.199219 12 60 30.597656 13.800781-18.597656 35.398438-30.597656 60-30.597656h30c8.402344 0 15 6.597656 15 15zm0 0" fill="#b9dd39"/><path d="m512 15v30c0 41.398438-33.601562 75-75 75h-30v-89.402344c13.800781-18.597656 35.398438-30.597656 60-30.597656h30c8.402344 0 15 6.597656 15 15zm0 0" fill="#a8d32a"/><path d="m238.929688 242c-7.585938 52.65625-52.609376 90-103.929688 90h-135v-75c0-8.289062 6.710938-15 15-15h52.71875c31.523438-38.230469 77.492188-60 127.28125-60h134.367188c16.917968 0 30.632812 13.714844 30.632812 30.632812 0 16.21875-13.148438 29.367188-29.367188 29.367188zm0 0" fill="#fed2a4"/><path d="m356.398438 309.5c18.601562 0 33.601562 15 33.601562 33.601562v.296876c0 18.601562-15 33.601562-33.601562 33.601562h-82.796876c-18.601562 0-33.601562-15-33.601562-33.601562v-.296876c0-18.601562 15-33.601562 33.601562-33.601562zm0 0" fill="#fed2a4"/><g fill="#ffbd86"><path d="m390 343.398438c0 18.601562-15 33.601562-33.601562 33.601562h-82.796876c-18.601562 0-33.601562-15-33.601562-33.601562zm0 0"/><path d="m296.25 512h-52.5c-18.640625 0-33.75-15.109375-33.75-33.75s15.109375-33.75 33.75-33.75h52.5c18.640625 0 33.75 15.109375 33.75 33.75s-15.109375 33.75-33.75 33.75zm0 0"/></g></svg>