<?xml version="1.0" encoding="utf-8"?>
<!-- Generator: Adobe Illustrator 22.1.0, SVG Export Plug-In . SVG Version: 6.00 Build 0)  -->
<svg version="1.1" id="Layer_1" xmlns="http://www.w3.org/2000/svg" xmlns:xlink="http://www.w3.org/1999/xlink" x="0px" y="0px"
	 viewBox="0 0 158 138" style="enable-background:new 0 0 158 138;" xml:space="preserve">
<style type="text/css">
	.st0{fill:#FFBD86;}
	.st1{fill:#F6A96C;}
	.st2{fill:#93BF00;}
	.st3{fill:#FED2A4;}
	.st4{fill:#81A713;}
	.st5{fill:#B9DD39;}
	.st6{fill:#A8D32A;}
	.st7{fill:#4A696F;}
</style>
<path class="st0" d="M49.7,76.1l7.7,16.4l17.4,37.4v8.1h16.5c13.7,0,26.4-5.9,35-16.2h14.5c2.3,0,4.1-1.8,4.1-4V89.5L120.3,75
	l-13-3.2L68.1,61.2L49.7,76.1z"/>
<path class="st1" d="M57.3,92.6l17.4,37.4v8.1h16.5c13.7,0,26.4-5.9,35-16.2h14.5c2.3,0,4.1-1.8,4.1-4V92.6H57.3z"/>
<path class="st2" d="M32.9,24.3c-2.3,0-4.1,1.8-4.1,4V30c0,9.8,0,19.7,4.1,28.1c2.1,4.3,5.3,8.2,10.1,11.3l4.1,2.8
	c0.7,0.4,1.5,0.6,2.3,0.6c1.3,0,2.6-0.6,3.5-1.8c1.2-1.9,0.7-4.4-1.2-5.7l-4.2-2.7C37,55.8,37,43.8,37,30v-1.7
	C37,26,35.2,24.3,32.9,24.3z"/>
<path class="st0" d="M55.2,101.6L53.1,93l11.7-2.5l4.8,11.1h8.3c5.1,0,9.3,4.1,9.3,9.1c0,5-4.2,9.1-9.3,9.1l-11.2,5.6l-3.3-5.6h-8.3
	c-5.1,0-9.3-4.1-9.3-9.1C45.9,105.7,50,101.6,55.2,101.6z"/>
<path class="st3" d="M29.3,74.3c0-5,4.2-9.1,9.3-9.1h22.7c5.1,0,9.3,4.1,9.3,9.1c0,5-4.2,9.1-9.3,9.1l-7.7,5.1l-6.7-5.1h-8.3
	C33.5,83.4,29.3,79.3,29.3,74.3z"/>
<path class="st4" d="M32.9,24.3c-2.3,0-4.1,1.8-4.1,4V30c0,9.8,0,19.7,4.1,28.1V24.3z"/>
<path class="st5" d="M4,4v8.1c0,11.2,9.3,20.2,20.7,20.2h16.5c11.4,0,20.7-9.1,20.7-20.2V4c0-2.3-1.8-4-4.1-4h-8.3
	c-6.8,0-12.7,3.2-16.5,8.2C29.1,3.2,23.2,0,16.4,0H8.1C5.8,0,4,1.8,4,4z"/>
<path class="st6" d="M4,4v8.1c0,11.2,9.3,20.2,20.7,20.2h8.3V8.2C29.1,3.2,23.2,0,16.4,0H8.1C5.8,0,4,1.8,4,4z"/>
<path class="st3" d="M79.2,65.2c2.1,14.2,14.5,24.3,28.6,24.3H145V69.3c0-2.2-1.8-4-4.1-4h-14.5c-8.7-10.3-21.3-16.2-35.1-16.2h-37
	c-4.7,0-8.4,3.7-8.4,8.3c0,4.4,3.6,7.9,8.1,7.9H79.2z"/>
<path class="st3" d="M46.9,83.4c-5.1,0-9.3,4-9.3,9.1v0.1c0,5,4.1,9.1,9.3,9.1h22.8c5.1,0,9.3-4,9.3-9.1v-0.1c0-5-4.1-9.1-9.3-9.1
	H46.9z"/>
<path class="st0" d="M37.6,92.6c0,5,4.1,9.1,9.3,9.1h22.8c5.1,0,9.3-4,9.3-9.1H37.6z"/>
<path class="st0" d="M63.4,138h14.5c5.1,0,9.3-4.1,9.3-9.1c0-5-4.2-9.1-9.3-9.1H63.4c-5.1,0-9.3,4.1-9.3,9.1
	C54.1,133.9,58.3,138,63.4,138z"/>
<path class="st7" d="M147.5,125h7c1.9,0,3.5-1.8,3.5-4V65c0-2.2-1.6-4-3.5-4h-7c-5.8,0-10.5,5.4-10.5,12v40
	C137,119.6,141.7,125,147.5,125z"/>
</svg>
