<?xml version="1.0" encoding="utf-8"?>
<!-- Generator: Adobe Illustrator 22.1.0, SVG Export Plug-In . SVG Version: 6.00 Build 0)  -->
<svg version="1.1" id="Capa_1" xmlns="http://www.w3.org/2000/svg" xmlns:xlink="http://www.w3.org/1999/xlink" x="0px" y="0px"
	 viewBox="0 0 378.4 378.4" style="enable-background:new 0 0 378.4 378.4;" xml:space="preserve">
<style type="text/css">
	.st0{fill:#006C70;}
	.st1{fill:#00D7DF;}
	.st2{fill:#00A1A7;}
	.st3{fill:#FFFFFF;}
	.st4{fill:#565659;}
</style>
<g id="XMLID_1325_">
	<path id="XMLID_1327_" class="st0" d="M256.7,208.4l-98,53.4l13,116.6h195v-170l-110,60V208.4z M296.7,298.4h30v30h-30V298.4z
		 M216.7,328.4h-30v-30h30V328.4z"/>
	<polygon id="XMLID_1331_" class="st1" points="76.7,328.4 76.7,298.4 92.2,298.4 92.2,138.4 38.4,138.4 11.7,378.4 92.2,378.4 
		92.2,328.4 	"/>
	<polygon id="XMLID_1332_" class="st2" points="145,138.4 92.2,138.4 92.2,298.4 106.7,298.4 106.7,328.4 92.2,328.4 92.2,378.4 
		171.7,378.4 158.7,261.8 	"/>
	<rect id="XMLID_1334_" x="186.7" y="298.4" class="st3" width="30" height="30"/>
	<rect id="XMLID_1335_" x="296.7" y="298.4" class="st3" width="30" height="30"/>
	<polygon id="XMLID_1336_" class="st3" points="76.7,328.4 92.2,328.4 106.7,328.4 106.7,298.4 92.2,298.4 76.7,298.4 	"/>
	<polygon id="XMLID_1337_" class="st4" points="145,138.4 156.7,138.4 156.7,108.4 26.7,108.4 26.7,138.4 38.4,138.4 92.2,138.4 	
		"/>
</g>
</svg>
