<?xml version="1.0" encoding="utf-8"?>
<!-- Generator: Adobe Illustrator 22.1.0, SVG Export Plug-In . SVG Version: 6.00 Build 0)  -->
<svg version="1.1" id="Layer_1" xmlns="http://www.w3.org/2000/svg" xmlns:xlink="http://www.w3.org/1999/xlink" x="0px" y="0px"
	 viewBox="0 0 512 512" style="enable-background:new 0 0 512 512;" xml:space="preserve">
<style type="text/css">
	.st0{fill:#A4E7F0;}
	.st1{fill:#139DB5;}
	.st2{fill:#0F7984;}
	.st3{fill:#2A373E;}
	.st4{fill:#425B67;}
</style>
<g>
	<path class="st0" d="M470.1,512H258.3c-9.8,0-17.7-7.9-17.7-17.7V141.2c0-9.8,7.9-17.7,17.7-17.7h211.8c9.8,0,17.7,7.9,17.7,17.7
		v353.1C487.8,504.1,479.9,512,470.1,512"/>
	<path class="st1" d="M240.6,450.2h247.2V203H240.6V450.2z"/>
	<path class="st2" d="M364.2,326.6c0-68.3-55.3-123.6-123.6-123.6v247.2C308.9,450.2,364.2,394.9,364.2,326.6"/>
	<path class="st3" d="M284.7,123.6h158.9V88.3H284.7V123.6z"/>
	<path class="st4" d="M320,88.3h88.3V0H320V88.3z"/>
	<path class="st3" d="M146.2,97.1h-0.3c-11.6,0-20.1-11.2-16.8-22.4c9.7-33,40.2-57.1,76.2-57.1H320V53H205.3
		c-19.8,0-36.5,13.1-42.1,31C160.8,91.6,154.2,97.1,146.2,97.1"/>
	<g>
		<path class="st1" d="M337.7,203h53v-79.4h-53V203z"/>
		<path class="st1" d="M65.8,140.1c0,0-35.1,30.3-41.1,68.7c-5,31.7,33.5,51.2,56.2,28.6l0,0c11.7-11.7,12.9-30,3-43.3
			C73.8,180.3,63.8,161.1,65.8,140.1"/>
		<path class="st1" d="M171.7,140.1c0,0-35.1,30.3-41.1,68.7c-5,31.7,33.5,51.2,56.2,28.6l0,0c11.7-11.7,12.9-30,3-43.3
			C179.7,180.3,169.7,161.1,171.7,140.1"/>
		<path class="st1" d="M105.6,272.5c0,0-35.1,30.3-41.1,68.7c-5,31.7,33.5,51.2,56.2,28.6l0,0c11.7-11.7,12.9-30,3-43.3
			C113.6,312.8,103.6,293.5,105.6,272.5"/>
	</g>
</g>
</svg>
