<?xml version="1.0" encoding="utf-8"?>
<!-- Generator: Adobe Illustrator 22.1.0, SVG Export Plug-In . SVG Version: 6.00 Build 0)  -->
<svg version="1.1" id="Capa_1" xmlns="http://www.w3.org/2000/svg" xmlns:xlink="http://www.w3.org/1999/xlink" x="0px" y="0px"
	 viewBox="0 0 512 512" style="enable-background:new 0 0 512 512;" xml:space="preserve">
<style type="text/css">
	.st0{fill:#1B56DB;}
	.st1{fill:#1147A5;}
	.st2{fill:#FFDE1F;}
	.st3{fill:#F9C41E;}
	.st4{fill:#EBEEF0;}
	.st5{fill:#CED7DB;}
	.st6{fill:#FFFFFF;}
	.st7{fill:#E0E0E0;}
</style>
<path class="st0" d="M36.6,388C81.4,462.3,162.9,512,256,512s174.6-49.7,219.4-124H36.6z"/>
<path class="st1" d="M475.4,388H256.2v124C349.2,511.9,430.6,462.3,475.4,388z"/>
<path id="SVGCleanerId_0" class="st2" d="M257,512c79.3-0.3,150.1-36.7,196.9-93.6l-29-122.2c-15.6-65.6-74.1-111.8-141.5-111.8h-71
	l4.7,129.3l0,0c22.1,0,40,17.9,40,40V512z"/>
<g>
	<path id="SVGCleanerId_0_1_" class="st2" d="M257,512c79.3-0.3,150.1-36.7,196.9-93.6l-29-122.2c-15.6-65.6-74.1-111.8-141.5-111.8
		h-71l4.7,129.3l0,0c22.1,0,40,17.9,40,40V512z"/>
</g>
<path class="st3" d="M408.3,255.3H214.9l2.1,58.4c22.1,0,40,17.9,40,40V512c79.3-0.3,150.1-36.7,196.9-93.6l-29-122.2
	C421.4,281.5,415.7,267.8,408.3,255.3z"/>
<path class="st4" d="M0,256c0,19.7,2.2,38.9,6.5,57.3h181.2V153.7H21.3C7.6,185,0,219.6,0,256z"/>
<path class="st5" d="M0,255.3c0,0.2,0,0.5,0,0.7c0,19.7,2.2,38.9,6.5,57.3h181.2v-58H0z"/>
<rect x="168" y="139" class="st6" width="59" height="189"/>
<rect x="168" y="255.3" class="st7" width="59" height="72.7"/>
</svg>
